<?xml version="1.0" standalone="no"?>
<!DOCTYPE svg PUBLIC "-//W3C//DTD SVG 20010904//EN"
 "http://www.w3.org/TR/2001/REC-SVG-20010904/DTD/svg10.dtd">
<svg version="1.0" xmlns="http://www.w3.org/2000/svg"
 width="1024.000000pt" height="1024.000000pt" viewBox="0 0 1024.000000 1024.000000"
 preserveAspectRatio="xMidYMid meet">
<metadata>
Created by potrace 1.14, written by Peter Selinger 2001-2017
</metadata>
<g transform="translate(0.000000,1024.000000) scale(0.100000,-0.100000)"
fill="#000000" stroke="none">
<path d="M0 5120 l0 -5120 5120 0 5120 0 0 5120 0 5120 -5120 0 -5120 0 0
-5120z m7490 4121 l0 -78 41 -6 c22 -3 58 -17 80 -31 21 -14 47 -26 58 -26 11
0 38 22 63 50 l43 50 72 -72 73 -72 -55 -56 -55 -56 19 -39 c10 -22 24 -59 30
-81 13 -48 25 -54 119 -54 l62 0 0 -94 c0 -108 2 -106 -107 -106 l-61 0 -17
-55 c-10 -30 -23 -63 -30 -72 -11 -14 -4 -25 47 -76 l59 -58 -62 -71 c-35 -38
-70 -73 -78 -76 -10 -4 -34 16 -70 55 l-56 60 -34 -23 c-19 -12 -56 -28 -82
-35 l-49 -13 0 -65 c0 -116 4 -112 -114 -109 l-101 3 -3 80 -3 80 -57 23 c-31
13 -69 29 -84 35 -26 11 -31 8 -88 -48 l-60 -59 -59 58 c-32 32 -65 69 -72 82
-12 23 -9 28 44 82 l58 58 -26 57 c-14 32 -25 64 -25 72 0 12 -16 15 -79 15
l-80 0 -3 98 c-2 53 -3 98 -3 99 0 1 36 3 79 5 l79 3 13 54 c8 29 21 65 30 80
16 28 16 28 -40 81 -31 29 -56 58 -56 64 1 6 30 41 65 79 l63 67 58 -50 c31
-27 60 -50 63 -50 3 0 28 11 55 25 27 13 64 27 82 31 l34 6 0 79 0 79 110 0
110 0 0 -79z m-2640 -15 l0 -74 44 -6 c25 -4 62 -18 82 -32 33 -23 40 -24 62
-13 13 8 35 27 49 43 l24 29 62 -61 62 -62 -50 -50 c-49 -49 -49 -50 -33 -78
8 -15 21 -51 28 -79 l12 -53 69 0 70 0 -3 -82 -3 -83 -67 -3 c-58 -2 -68 -6
-68 -21 0 -11 -13 -43 -28 -73 l-29 -54 53 -55 54 -54 -61 -60 -60 -60 -48 52
-47 52 -35 -23 c-19 -13 -58 -31 -87 -41 l-54 -17 4 -54 3 -54 -97 0 -98 0 0
54 0 54 -43 10 c-24 6 -60 23 -81 37 -20 14 -41 25 -46 25 -4 0 -27 -22 -50
-50 -23 -27 -47 -50 -52 -50 -20 0 -76 49 -98 85 l-22 36 47 50 c25 27 45 55
43 62 -2 7 -12 37 -22 68 l-19 57 -76 8 -76 9 -3 82 -3 82 72 3 71 3 18 58
c10 32 26 67 35 77 15 17 13 21 -39 70 l-56 53 58 62 57 62 47 -45 47 -46 52
29 c29 15 71 34 93 40 40 12 41 13 44 61 5 98 1 94 102 94 l90 0 0 -74z m1258
-146 c29 -44 28 -63 -8 -103 -35 -40 -66 -49 -108 -31 -65 27 -82 101 -34 146
44 41 63 48 97 34 16 -7 40 -27 53 -46z m332 45 c66 -34 80 -104 30 -153 -35
-35 -68 -43 -108 -27 -31 14 -72 59 -72 82 0 30 32 74 68 92 45 25 46 25 82 6z
m-720 -22 c46 -42 49 -82 10 -127 -42 -47 -84 -49 -133 -6 -43 37 -50 61 -28
101 34 62 101 77 151 32z m-2022 -147 c85 -43 155 -104 183 -158 10 -20 19
-40 19 -43 0 -7 -86 -6 -131 1 -22 4 -58 24 -90 50 -33 27 -70 47 -101 55 -45
10 -53 9 -96 -13 -65 -33 -106 -110 -99 -184 13 -133 98 -205 221 -189 60 8
77 16 132 62 29 24 51 33 77 33 71 0 80 -15 48 -78 -51 -98 -162 -151 -318
-152 -50 0 -103 4 -118 10 -14 5 -51 33 -80 61 -33 31 -68 54 -87 58 -52 11
-58 34 -58 230 l0 174 38 -7 c36 -5 41 -3 86 45 70 74 112 91 216 86 74 -3 94
-8 158 -41z m-694 -146 c1 -28 -3 -54 -8 -57 -12 -8 -1136 -4 -1209 4 -50 5
-58 9 -63 30 -4 13 -2 35 4 49 l12 24 627 2 c346 2 630 2 632 1 1 -1 4 -25 5
-53z m3082 -14 c57 -57 42 -131 -32 -162 -30 -13 -38 -12 -63 0 -37 19 -61 58
-61 97 0 40 56 99 95 99 17 0 39 -12 61 -34z m362 6 c25 -16 52 -61 52 -88 0
-9 -15 -31 -34 -50 -28 -28 -41 -34 -78 -34 -110 0 -137 142 -35 185 33 14 59
10 95 -13z m-728 -11 c56 -55 49 -115 -17 -146 -47 -23 -95 -13 -127 26 -31
36 -31 40 -10 85 33 70 103 86 154 35z m-2743 -230 c25 -6 28 -12 31 -52 l3
-45 -303 -4 c-232 -2 -813 -3 -905 0 -24 0 -35 39 -21 70 l13 30 185 3 c397 6
970 5 997 -2z m5416 -42 c15 -21 27 -46 27 -54 0 -28 -45 -46 -107 -43 -57 3
-58 4 -59 33 -1 17 9 47 22 68 20 30 30 37 57 37 26 -1 37 -8 60 -41z m-2678
-40 c47 -41 49 -86 4 -123 -41 -35 -71 -41 -108 -22 -31 17 -61 61 -61 92 0 9
15 31 34 50 44 44 82 45 131 3z m365 4 c44 -36 53 -66 36 -108 -24 -57 -99
-82 -142 -47 -41 33 -56 66 -44 98 31 80 95 104 150 57z m382 -5 c53 -37 45
-102 -17 -140 -48 -29 -88 -24 -124 17 -17 20 -31 46 -31 58 0 51 68 102 120
90 14 -3 37 -15 52 -25z m1799 -509 c119 -34 249 -140 303 -248 39 -76 56
-155 56 -256 0 -119 -18 -177 -87 -278 -103 -151 -115 -176 -121 -249 l-5 -68
-68 0 -68 0 4 28 c26 153 22 142 151 362 64 109 80 167 67 257 -35 247 -245
398 -482 349 -93 -19 -145 -50 -214 -126 -70 -78 -97 -154 -97 -273 0 -101 11
-125 125 -297 80 -119 86 -133 100 -211 8 -45 13 -85 10 -87 -2 -2 -32 -7 -67
-9 l-64 -5 -11 76 c-10 69 -17 86 -81 183 -122 188 -126 199 -130 343 -3 106
-1 134 16 185 64 190 210 321 384 345 85 11 199 3 279 -21z m-3699 -451 c-2
-178 -6 -325 -9 -328 -3 -3 -220 -7 -483 -8 l-478 -4 -7 -175 c-4 -96 -6 -228
-5 -292 2 -64 2 -140 2 -169 l-2 -53 -32 25 c-60 44 -131 61 -263 61 -130 0
-237 -20 -312 -58 -23 -12 -45 -18 -49 -15 -3 4 -9 157 -13 340 l-6 333 -511
3 -512 2 -3 288 c-2 158 -2 304 0 324 l3 38 1262 3 c693 1 1297 3 1341 5 l81
2 -4 -322z m1973 299 c246 -60 411 -150 575 -316 167 -168 269 -372 300 -600
27 -200 -46 -458 -181 -638 -43 -57 -163 -164 -246 -221 l-53 -35 62 -29 c317
-149 523 -515 505 -893 -9 -181 -60 -337 -170 -524 -176 -296 -410 -459 -766
-533 -90 -18 -145 -20 -898 -24 l-802 -4 -1 1637 c0 901 3 1765 7 1921 l6 283
796 -4 c706 -3 804 -5 866 -20z m1479 -128 c30 -36 31 -40 11 -79 -15 -29 -42
-50 -65 -50 -18 0 -60 48 -60 69 0 24 56 91 75 91 7 0 25 -14 39 -31z m121
-264 l190 0 -3 -35 c-4 -59 -45 -84 -135 -83 -17 0 -18 -14 -15 -213 l3 -213
-33 -6 c-19 -3 -47 -3 -64 1 l-31 6 5 209 6 209 -24 0 c-39 0 -118 30 -136 52
-37 42 -14 99 32 79 8 -3 101 -6 205 -6z m85 -539 c0 -3 -4 -8 -10 -11 -5 -3
-10 -1 -10 4 0 6 5 11 10 11 6 0 10 -2 10 -4z m-6573 -129 c36 -19 78 -61 112
-111 55 -83 23 -207 -69 -271 -81 -56 -232 -44 -291 22 -68 78 -86 169 -50
249 21 46 82 102 132 121 41 15 126 10 166 -10z m2618 -1 c11 -16 28 -25 57
-29 63 -9 91 -42 91 -111 0 -31 4 -59 8 -62 19 -11 8 -52 -22 -80 -28 -27 -36
-29 -123 -32 -118 -5 -126 1 -126 100 l0 71 -40 -7 -40 -6 0 56 0 57 40 -7
c36 -6 40 -4 40 15 0 41 18 59 60 59 31 0 43 -5 55 -24z m-2131 -12 c9 -3 16
-12 16 -20 0 -9 12 -14 36 -14 l35 0 -3 -42 c-3 -42 -4 -43 -43 -48 l-40 -5
-3 -71 c-3 -77 -9 -83 -69 -84 -22 0 -23 4 -23 80 0 81 -9 97 -38 68 -9 -9
-12 -1 -12 38 0 78 17 93 112 102 9 1 23 -1 32 -4z m6255 -8 c6 -4 11 -25 11
-46 0 -33 -4 -41 -22 -45 -13 -3 -142 -4 -288 -3 l-265 3 -3 47 -3 47 108 3
c182 5 450 1 462 -6z m-5942 -52 c15 -21 17 -107 3 -134 -14 -26 -73 -43 -119
-35 -30 5 -41 12 -45 30 -8 32 4 136 18 154 16 20 126 8 143 -15z m5931 -160
c21 -38 -15 -100 -67 -114 -57 -16 -342 -13 -382 4 -39 16 -74 51 -84 84 -5
17 -1 24 17 31 13 6 132 10 265 10 214 1 243 -1 251 -15z m-4891 -207 l-6 -92
119 -38 c81 -26 135 -50 173 -78 31 -21 59 -39 64 -39 4 0 46 36 92 80 46 45
86 78 90 75 3 -3 35 -41 71 -85 36 -43 98 -115 138 -159 39 -45 72 -85 72 -91
0 -5 -38 -46 -84 -90 l-85 -81 29 -61 c16 -34 34 -93 40 -132 l12 -71 116 0
117 0 6 -75 c4 -41 7 -146 8 -232 l1 -158 -129 0 -128 0 -13 -62 c-6 -35 -26
-91 -43 -126 l-31 -62 89 -90 88 -89 -144 -151 c-79 -84 -151 -156 -159 -160
-16 -9 -71 52 -135 148 -15 23 -31 42 -34 42 -4 0 -22 -13 -41 -28 -81 -65
-158 -99 -272 -117 l-38 -6 0 -113 c0 -109 -1 -114 -22 -120 -31 -8 -216 -8
-312 1 l-78 6 4 110 3 111 -65 12 c-83 16 -151 46 -218 96 l-52 41 -22 -29
c-12 -16 -54 -62 -93 -102 l-70 -74 -83 89 c-86 92 -212 247 -212 262 0 4 36
47 81 95 l81 86 -23 58 c-13 31 -31 86 -39 121 l-16 63 -121 -1 c-103 -2 -121
0 -127 14 -16 41 1 425 19 444 2 2 52 5 111 7 l107 4 27 104 c15 58 33 112 40
121 15 18 11 24 -95 126 l-69 67 59 68 c33 38 106 114 162 170 l102 102 25
-32 c13 -17 49 -57 79 -89 l55 -59 65 45 c59 41 186 92 247 99 l25 3 -4 100
-3 100 207 -3 c139 -2 211 0 218 7 25 25 30 8 24 -82z m-1872 -104 c4 -10 11
-67 15 -127 5 -59 13 -113 19 -119 6 -6 11 -34 11 -63 0 -41 -5 -56 -25 -76
-36 -36 -78 -42 -131 -19 -81 36 -110 129 -58 191 22 25 28 47 36 118 6 48 12
93 14 100 2 8 23 12 58 12 42 0 56 -4 61 -17z m6948 -90 c55 -38 96 -113 97
-174 0 -62 -42 -142 -95 -180 -77 -56 -193 -48 -265 17 -46 42 -90 125 -90
171 0 43 50 124 98 155 68 47 75 49 145 45 56 -4 77 -10 110 -34z m-593 -3
c24 -12 53 -40 72 -69 31 -47 34 -49 82 -50 59 -1 65 -6 59 -48 -5 -32 -7 -33
-52 -33 -44 0 -48 -2 -59 -33 -17 -48 -78 -115 -120 -133 -20 -8 -65 -15 -100
-16 -62 -1 -64 0 -108 43 -56 55 -78 111 -72 183 6 67 42 127 95 155 52 28
150 28 203 1z m-6389 -612 c50 -14 114 -69 139 -119 30 -59 27 -134 -8 -190
-66 -102 -165 -160 -223 -129 -39 21 -110 93 -130 131 -55 109 -16 249 83 297
50 24 85 27 139 10z m6609 -153 c0 -68 3 -85 15 -85 28 0 110 -32 131 -51 11
-10 25 -19 31 -19 5 0 38 26 72 58 l62 59 69 -76 68 -76 -38 -41 c-70 -77 -73
-85 -51 -137 11 -25 23 -62 26 -80 l7 -34 81 -7 c45 -4 84 -9 87 -12 3 -3 5
-49 5 -102 l0 -97 -65 -3 c-84 -3 -110 -9 -110 -26 0 -8 -14 -40 -30 -71 -35
-66 -36 -64 49 -141 l46 -42 -69 -76 c-37 -42 -75 -76 -84 -76 -10 0 -42 27
-72 61 l-55 61 -35 -20 c-19 -11 -53 -25 -75 -32 -63 -20 -65 -24 -65 -118 l0
-85 -101 6 c-55 3 -104 8 -107 12 -4 4 -6 41 -6 84 l2 76 -82 28 c-44 15 -89
30 -98 33 -11 4 -32 -10 -66 -47 l-49 -52 -37 34 -38 35 67 84 c37 47 78 102
91 123 14 20 26 37 29 37 2 0 32 -18 66 -40 84 -54 178 -83 245 -75 123 15
253 113 294 222 49 128 34 236 -46 342 -37 49 -59 67 -118 96 -61 31 -84 37
-147 38 -41 1 -91 -2 -111 -6 l-38 -8 0 86 c0 56 4 85 11 85 8 0 10 23 6 74
-3 41 -2 77 1 80 3 3 56 6 119 6 l113 0 0 -85z m-6588 -405 c18 -134 16 -777
-3 -827 -6 -17 -16 -23 -39 -23 -35 0 -54 15 -57 45 -2 11 -7 47 -12 80 -5 33
-11 164 -12 290 -7 418 -4 460 33 495 12 11 18 20 12 21 -5 0 5 7 21 14 17 7
33 10 37 7 4 -4 13 -50 20 -102z m-239 81 c4 -4 6 -182 5 -397 l-3 -389 -57
-3 -58 -3 0 406 0 407 53 -7 c28 -4 55 -10 60 -14z m470 -48 c13 -140 20 -453
12 -596 l-7 -148 -59 3 -59 3 -2 397 -3 397 35 4 c83 9 77 14 83 -60z m6322
-46 c45 -25 80 -73 95 -127 21 -76 -34 -178 -106 -196 -14 -4 -50 -4 -80 -2
-48 4 -61 10 -95 45 -48 47 -63 97 -48 162 13 58 33 91 72 119 42 29 108 29
162 -1z m-288 -1203 c-3 -3 -12 -4 -19 -1 -8 3 -5 6 6 6 11 1 17 -2 13 -5z
m-6577 -79 l0 -75 -70 0 -70 0 0 70 0 69 68 4 c37 2 68 4 70 5 1 1 2 -32 2
-73z m268 3 l-3 -63 -74 -3 -74 -3 7 38 c3 21 6 50 6 66 0 27 0 27 70 27 l71
0 -3 -62z m272 -2 l0 -63 -47 -6 c-26 -3 -62 -3 -80 0 -33 6 -33 6 -33 64 l0
58 38 4 c20 2 56 4 80 5 l42 2 0 -64z m4708 -49 c158 -95 212 -244 140 -387
-75 -150 -215 -220 -360 -179 -54 14 -150 107 -179 171 -33 73 -33 203 -2 264
35 67 125 136 213 165 47 16 132 0 188 -34z m-3738 -6 c0 -21 -3 -53 -6 -70
l-7 -32 -84 2 -84 2 1 -232 1 -231 -72 0 -71 0 3 228 3 227 -97 3 -97 3 0 32
c0 18 3 49 6 70 l7 37 248 0 249 0 0 -39z m330 -76 l0 -115 115 0 115 0 0 115
0 116 61 -3 62 -3 1 -295 1 -295 -56 -3 -57 -3 -7 127 -7 127 -52 -7 c-28 -3
-80 -6 -114 -6 l-64 0 4 -117 3 -118 -67 -3 -68 -3 0 301 0 300 65 0 65 0 0
-115z m1050 39 l0 -64 -150 0 -150 0 0 -50 0 -50 125 0 125 0 0 -59 0 -58 -37
-7 c-21 -3 -77 -6 -125 -6 l-88 0 0 -50 0 -50 161 0 162 0 -7 -37 c-3 -21 -6
-50 -6 -65 l0 -28 -220 0 -220 0 0 295 0 295 208 2 c114 2 210 2 215 0 4 -2 7
-32 7 -68z m980 47 c19 -10 50 -37 68 -60 26 -35 32 -52 32 -91 0 -41 -5 -55
-32 -86 -31 -35 -32 -38 -13 -48 50 -29 65 -54 65 -109 0 -69 -28 -112 -95
-146 -46 -24 -60 -26 -227 -30 l-178 -3 0 302 0 302 173 -7 c134 -5 180 -11
207 -24z m474 -94 c4 -65 4 -169 0 -231 l-7 -111 104 3 c57 2 123 1 147 -3
l42 -6 0 -67 0 -67 -205 0 -205 0 0 301 0 302 59 -1 58 0 7 -120z m1693 111
c16 -7 49 -26 75 -42 l46 -30 -41 -47 -41 -48 -41 25 c-56 33 -138 33 -185 1
-102 -68 -100 -235 4 -298 35 -21 124 -26 174 -8 25 9 52 47 52 75 0 2 -27 4
-60 4 l-61 0 3 58 c2 38 7 57 16 56 6 -1 58 -2 115 -3 l102 -1 0 -116 c0 -133
2 -130 -110 -187 -83 -42 -179 -49 -252 -17 -61 26 -145 109 -173 172 -42 92
-19 233 50 311 60 67 145 107 230 107 37 0 81 -6 97 -12z m-6033 -184 c3 -9 6
-40 6 -70 l0 -54 -75 0 -75 0 0 64 c0 42 4 66 13 69 6 3 37 6 68 6 43 1 58 -3
63 -15z m266 -54 l0 -70 -72 0 -73 0 -2 70 -1 70 74 0 74 0 0 -70z m280 0 l0
-70 -80 0 -80 0 0 70 0 70 80 0 80 0 0 -70z m-540 -260 l0 -70 -70 0 -70 0 0
70 0 70 70 0 70 0 0 -70z m260 0 l0 -70 -70 0 -70 0 0 49 c0 27 -3 56 -6 64
-6 17 17 22 104 25 l42 2 0 -70z m270 -5 l0 -65 -80 0 -80 0 0 65 0 65 80 0
80 0 0 -65z m6299 -450 c93 -22 175 -70 256 -150 113 -112 151 -218 142 -390
-8 -163 -68 -287 -183 -381 l-46 -38 6 -91 c3 -49 2 -96 -3 -104 -13 -20 -563
-28 -601 -8 -23 11 -26 21 -35 108 l-10 96 -73 79 c-84 91 -127 171 -142 264
-20 131 -9 221 42 332 67 143 180 238 338 283 63 18 232 18 309 0z m-4377
-142 l3 -87 35 -7 c19 -4 58 -20 87 -36 l52 -28 54 53 53 52 75 -74 76 -74
-58 -59 -59 -58 25 -49 c13 -27 27 -63 31 -81 l6 -33 85 -7 86 -7 -7 -60 c-3
-34 -6 -78 -6 -99 l0 -39 -80 0 -79 0 -12 -42 c-6 -24 -17 -57 -26 -74 l-14
-32 55 -52 c31 -29 56 -57 56 -61 0 -14 -131 -149 -144 -149 -7 0 -37 22 -66
49 l-55 48 -69 -33 c-39 -19 -78 -34 -88 -34 -16 0 -18 -10 -18 -85 0 -83 -1
-85 -26 -91 -39 -10 -177 4 -186 19 -4 6 -8 45 -8 85 0 56 -3 72 -14 72 -8 0
-45 16 -82 35 -37 19 -71 35 -76 35 -5 0 -34 -23 -64 -52 -54 -51 -54 -51 -75
-32 -12 10 -44 46 -72 79 l-50 59 59 56 59 55 -22 40 c-13 22 -23 50 -23 62 0
30 -14 36 -95 43 l-70 5 -3 103 -3 102 75 0 74 0 12 38 c7 20 23 56 35 79 l23
43 -64 62 -65 62 68 68 c37 37 71 68 75 68 4 0 30 -20 58 -45 28 -25 54 -45
59 -45 5 0 28 11 52 24 24 13 63 29 87 36 l42 11 0 84 0 85 110 0 109 0 3 -87z
m1440 0 l-3 -82 43 -12 c24 -6 61 -22 84 -35 22 -13 47 -24 55 -24 7 0 36 22
64 49 l50 49 71 -73 71 -73 -55 -61 c-42 -48 -52 -64 -43 -75 6 -7 22 -42 34
-77 l23 -64 82 -3 82 -3 0 -104 0 -104 -86 -3 -87 -3 -12 -47 c-6 -25 -19 -58
-29 -72 -17 -27 -17 -27 34 -81 29 -29 52 -56 52 -60 1 -13 -86 -116 -115
-137 l-29 -21 -56 56 -57 56 -69 -34 c-37 -19 -77 -35 -87 -35 -16 0 -19 -10
-21 -87 l-3 -88 -91 1 c-127 1 -124 -2 -124 94 0 72 -2 80 -19 80 -11 0 -50
16 -87 35 -76 40 -64 42 -147 -35 l-39 -35 -64 69 c-35 37 -64 76 -64 86 0 9
22 38 50 64 l49 46 -24 52 c-14 29 -25 61 -25 70 0 19 -29 26 -115 30 l-50 3
-3 103 -3 102 73 0 73 1 41 84 41 84 -60 60 -60 60 46 48 c25 26 54 58 64 71
l18 23 58 -50 c32 -28 61 -51 64 -51 3 0 33 13 67 29 33 16 75 32 91 35 30 6
30 7 27 67 -2 33 -1 71 2 85 7 25 7 25 114 22 l107 -3 -3 -82z m1463 -18 c204
-53 377 -227 430 -431 22 -86 20 -227 -6 -310 -65 -214 -256 -384 -477 -424
-154 -28 -353 42 -483 170 -77 76 -111 127 -145 218 -82 216 -30 454 135 621
74 74 174 133 267 155 79 19 207 19 279 1z m-4345 -94 c69 -6 135 -13 146 -16
28 -6 60 -53 45 -68 -14 -14 -629 -13 -643 1 -15 15 14 57 55 83 29 18 44 20
152 16 66 -3 176 -10 245 -16z m305 -502 l0 -296 -28 -36 c-19 -25 -39 -39
-65 -44 -61 -13 -725 -4 -734 10 -39 59 -63 302 -53 522 l7 140 436 -1 437 0
0 -295z m5659 -511 c19 -27 21 -62 3 -76 -7 -6 -129 -13 -310 -18 l-297 -7 0
44 c0 78 -14 75 342 77 245 2 247 2 262 -20z m-26 -177 c19 -10 22 -18 17 -39
-3 -15 -17 -38 -31 -52 l-25 -25 -212 0 c-236 0 -254 4 -275 65 -10 28 -9 32
13 40 26 10 277 25 405 24 49 0 95 -5 108 -13z"/>
<path d="M7264 8999 c-143 -55 -234 -221 -204 -373 22 -115 92 -206 198 -258
37 -18 63 -23 127 -23 72 0 87 4 150 37 83 43 125 85 157 153 19 42 23 67 23
150 0 90 -3 105 -28 153 -40 76 -103 135 -171 161 -74 28 -181 28 -252 0z
m227 -185 c43 -41 61 -80 62 -134 2 -97 -70 -171 -167 -172 -126 -2 -201 148
-133 265 34 58 76 79 150 74 47 -3 63 -8 88 -33z"/>
<path d="M7346 8718 c-21 -30 -20 -61 2 -81 24 -22 55 -21 75 1 23 25 21 58
-3 82 -26 26 -55 25 -74 -2z"/>
<path d="M4660 9013 c-86 -30 -147 -86 -189 -173 -48 -101 -25 -259 51 -345
35 -41 133 -91 192 -100 65 -10 147 11 214 55 49 31 65 49 90 99 48 97 58 154
38 231 -9 36 -29 85 -44 110 -70 114 -224 168 -352 123z m158 -189 c26 -18 47
-55 57 -102 9 -41 -25 -114 -61 -130 -94 -43 -199 41 -179 144 4 23 20 51 40
71 27 27 41 33 77 33 24 0 54 -7 66 -16z"/>
<path d="M2178 7614 c-32 -17 -58 -62 -58 -98 0 -37 30 -105 51 -116 52 -28
165 6 188 57 15 32 13 82 -3 111 -31 56 -118 79 -178 46z"/>
<path d="M2619 7607 c-29 -19 -34 -29 -37 -66 -4 -53 12 -95 46 -121 66 -52
142 6 142 110 0 31 -6 44 -35 69 -42 37 -70 39 -116 8z"/>
<path d="M3003 7616 c-47 -21 -67 -58 -59 -107 13 -83 51 -113 126 -99 62 11
100 55 100 115 0 38 -4 47 -32 69 -42 31 -94 40 -135 22z"/>
<path d="M3455 7621 c-67 -17 -95 -45 -95 -96 0 -34 24 -80 52 -99 34 -24 133
-21 158 4 52 52 52 145 1 177 -26 16 -81 23 -116 14z"/>
<path d="M4055 7615 c-5 -2 -22 -6 -38 -9 -37 -9 -67 -40 -67 -73 0 -41 45
-108 82 -124 45 -19 155 -17 195 4 62 33 69 134 12 181 -27 23 -39 26 -102 25
-40 0 -76 -2 -82 -4z"/>
<path d="M5530 6743 l0 -498 68 6 c37 3 162 4 277 1 116 -2 272 0 349 6 131
10 143 13 223 51 142 68 234 180 267 324 51 221 -35 424 -227 530 -124 70
-129 70 -564 75 l-393 3 0 -498z m636 138 c33 -20 64 -75 64 -113 0 -37 -37
-88 -77 -104 -31 -13 -41 -14 -72 -2 -43 17 -81 69 -81 113 0 58 61 125 115
125 11 0 34 -9 51 -19z"/>
<path d="M7004 6976 c-77 -34 -116 -144 -76 -216 59 -108 220 -108 274 0 24
47 23 87 -4 140 -39 76 -121 108 -194 76z"/>
<path d="M5135 6133 c-29 -7 -84 -62 -107 -107 -57 -110 35 -253 155 -243 84
7 167 100 167 188 0 107 -107 188 -215 162z"/>
<path d="M5558 5653 l-28 -4 0 -523 0 -523 418 1 c458 2 434 -1 580 68 123 58
233 198 267 339 27 115 13 274 -31 362 -59 116 -170 212 -297 254 l-82 27
-400 2 c-220 1 -412 0 -427 -3z m662 -411 c37 -27 72 -101 65 -137 -10 -53
-85 -115 -140 -115 -54 0 -131 64 -141 117 -11 59 41 139 101 156 32 9 88 -1
115 -21z"/>
<path d="M7094 5286 c-17 -8 -45 -31 -63 -52 -30 -36 -32 -43 -29 -101 3 -43
10 -71 24 -90 76 -103 209 -97 271 12 75 132 -65 291 -203 231z"/>
<path d="M5166 5153 c-4 -10 1 -25 14 -37 25 -26 53 -12 58 28 3 24 0 26 -31
26 -23 0 -37 -6 -41 -17z"/>
<path d="M1510 6652 c-70 -35 -78 -115 -19 -175 26 -26 35 -29 70 -24 50 7 76
29 90 77 26 86 -62 162 -141 122z"/>
<path d="M4267 6633 c-9 -8 -9 -66 -1 -87 8 -21 58 -21 78 0 21 21 20 57 -2
77 -19 17 -63 23 -75 10z"/>
<path d="M3195 5983 c-53 -7 -178 -41 -238 -63 -81 -30 -192 -122 -264 -218
-113 -150 -138 -230 -138 -442 1 -157 19 -249 69 -349 73 -143 250 -288 432
-352 40 -14 95 -22 174 -26 142 -7 230 12 376 83 84 40 112 61 179 129 98 100
139 168 178 293 25 83 29 113 29 202 -2 135 -26 231 -92 358 -107 207 -247
313 -491 372 -79 19 -144 23 -214 13z m245 -278 c41 -15 94 -41 118 -58 51
-37 112 -124 143 -205 43 -112 35 -281 -17 -390 -64 -132 -268 -271 -399 -272
-109 -1 -250 63 -341 154 -105 106 -150 234 -143 414 4 80 7 93 39 146 57 94
133 171 203 206 111 54 258 56 397 5z"/>
<path d="M3155 5536 c-108 -50 -181 -175 -172 -291 8 -107 68 -194 169 -245
42 -20 76 -30 107 -30 201 0 351 226 267 405 -69 150 -238 223 -371 161z m175
-159 c31 -15 72 -94 64 -122 -14 -47 -81 -95 -131 -95 -40 0 -106 41 -117 71
-13 39 1 94 33 128 25 26 36 31 78 31 26 0 59 -6 73 -13z"/>
<path d="M8387 6030 c-58 -45 -56 -128 3 -170 67 -48 150 2 150 91 0 22 -10
41 -34 65 -40 40 -80 45 -119 14z"/>
<path d="M7829 6015 c-14 -8 -32 -27 -38 -44 -11 -25 -10 -35 4 -66 10 -20 31
-43 48 -52 28 -14 33 -14 64 1 39 19 67 72 57 111 -14 55 -80 80 -135 50z"/>
<path d="M1469 5371 c-42 -42 -40 -92 5 -137 41 -41 82 -45 113 -11 39 43 38
108 -3 152 -32 35 -77 33 -115 -4z"/>
<path d="M6357 3506 c-50 -18 -76 -42 -98 -91 -24 -53 -24 -99 2 -152 42 -86
133 -116 226 -74 116 53 123 229 11 295 -57 33 -94 39 -141 22z"/>
<path d="M4900 3455 l0 -55 99 0 c122 0 131 3 131 45 0 54 -23 65 -133 65
l-97 0 0 -55z"/>
<path d="M4928 3273 c-26 -4 -28 -8 -28 -54 l0 -49 113 0 c124 0 137 5 137 55
0 17 -5 36 -12 43 -12 12 -146 15 -210 5z"/>
<path d="M7827 2536 c-165 -68 -247 -179 -255 -347 -7 -145 30 -240 138 -347
68 -68 80 -93 80 -163 l0 -49 68 0 67 0 -3 147 -3 147 -77 78 c-108 111 -117
140 -47 154 36 6 40 4 109 -65 39 -39 74 -71 77 -71 3 0 31 32 63 70 l58 71
51 -3 c48 -3 52 -5 55 -30 3 -22 -5 -32 -43 -58 -26 -18 -63 -58 -85 -91 l-37
-58 5 -143 c2 -79 5 -144 6 -145 0 0 26 -4 57 -8 l56 -7 7 67 c8 82 11 87 87
172 87 98 122 174 127 277 5 102 -14 179 -65 253 -97 144 -335 215 -496 149z
m50 -162 c16 -25 16 -28 -3 -62 -39 -72 -96 -90 -123 -38 -17 31 -6 63 31 98
38 36 72 36 95 2z"/>
<path d="M3571 2289 c-93 -18 -191 -104 -239 -207 -21 -46 -26 -72 -26 -137 0
-70 4 -89 34 -153 86 -188 284 -251 471 -150 136 72 200 219 164 373 -35 151
-133 247 -280 274 -65 12 -63 12 -124 0z m165 -210 c51 -48 71 -115 54 -180
-31 -113 -165 -144 -251 -58 -59 59 -63 143 -9 211 48 62 154 75 206 27z"/>
<path d="M4973 2282 c-105 -37 -164 -96 -212 -212 -47 -109 -24 -262 53 -363
35 -47 120 -102 181 -118 144 -39 331 54 402 200 24 49 28 68 28 146 0 71 -5
102 -24 149 -65 163 -266 255 -428 198z m186 -190 c121 -89 93 -272 -47 -308
-39 -11 -92 6 -131 42 -50 44 -65 82 -59 145 8 84 91 154 172 145 22 -3 51
-13 65 -24z"/>
<path d="M5036 1978 c-24 -34 -19 -54 15 -68 38 -16 63 -4 67 32 6 51 -53 77
-82 36z"/>
<path d="M6398 2365 c-157 -43 -267 -168 -299 -341 -28 -151 40 -346 151 -434
93 -74 234 -112 337 -91 141 28 244 104 303 224 90 184 73 376 -45 514 -101
118 -289 172 -447 128z m252 -182 c2 -58 22 -206 30 -224 6 -13 18 -70 28
-126 l18 -103 -55 0 c-31 0 -126 -3 -211 -6 l-155 -7 1 229 1 229 129 -3 c72
-2 140 1 154 7 30 12 60 14 60 4z"/>
<path d="M6442 2062 c-9 -6 -12 -36 -10 -113 l3 -104 64 -3 c35 -2 68 1 73 6
6 6 5 32 -1 68 -6 33 -12 78 -13 101 -1 33 -6 43 -22 47 -31 8 -79 7 -94 -2z"/>
<path d="M1923 2054 c-10 -25 -10 -320 0 -357 l8 -28 234 3 c209 3 236 5 252
21 16 15 18 36 18 150 -1 147 -13 189 -63 208 -15 6 -120 13 -234 16 -197 6
-208 5 -215 -13z m370 -98 c20 -21 29 -91 17 -136 l-10 -38 -124 -7 c-68 -4
-129 -4 -135 -1 -12 8 -15 154 -3 172 12 19 34 22 139 23 76 1 105 -3 116 -13z"/>
</g>
</svg>
